# xmcd CD database file
#
# Track frame offsets:
#	150
#	18008
#	37473
#	59888
#	83165
#	100378
#	121218
#	139028
#	169820
#	184043
#	208155
#
# Disc length: 2967 seconds
#
# Revision: 1
# Processed by: cddbd v1.5.2PL0 Copyright (c) Steve Scherf et al.
# Submitted via: CDex 1.51
#
DISCID=9f0b950b
DTITLE=Giovanni De Chiaro - Scott Joplin on Guitar
DYEAR=1990
DGENRE=Jazz
TTITLE0=The Entertainer
TTITLE1=The Heliotrope Bouquet
TTITLE2=Eugenia
TTITLE3=Bethena-A Concert Waltz
TTITLE4=The Pine Apple Rag
TTITLE5=The Weeping Willow
TTITLE6=The Sunflower Slow Drag
TTITLE7=Solace-A Mexican Serenade
TTITLE8=Elite Syncopations
TTITLE9=The Chrysanthemum
TTITLE10=The Maple Leaf Rag
EXTD=YEAR: 1990
EXTT0=
EXTT1=
EXTT2=
EXTT3=
EXTT4=
EXTT5=
EXTT6=
EXTT7=
EXTT8=
EXTT9=
EXTT10=
PLAYORDER=
